<svg width="453" height="321" viewBox="0 0 453 321" fill="none" xmlns="http://www.w3.org/2000/svg">
<g filter="url(#filter0_d_108_1754)">
<path d="M171 304.935C250.529 304.935 315 240.464 315 160.935C315 81.4058 250.529 16.9348 171 16.9348C91.471 16.9348 27 81.4058 27 160.935C27 240.464 91.471 304.935 171 304.935Z" fill="#F2F2F2"/>
<path d="M194.108 182.892C162.401 231.769 171.089 293.935 171.089 293.935C171.089 293.935 231.184 276.855 262.892 227.978C294.599 179.1 285.911 116.935 285.911 116.935C285.911 116.935 225.816 134.015 194.108 182.892Z" fill="#3F3D56"/>
<path d="M170.991 292.935C170.991 292.935 170.215 292.812 168.786 292.524C167.646 292.294 166.077 291.965 164.16 291.513C147.029 287.493 101.485 273.904 71.7083 238.176C34.4401 193.438 36.0095 130.935 36.0095 130.935C36.0095 130.935 92.9938 140.15 130.543 180.326C132.17 182.052 133.753 183.841 135.292 185.694C167.72 224.62 170.743 276.995 170.983 289.942C171.016 291.883 170.991 292.935 170.991 292.935Z" fill="#222F65"/>
<path fill-rule="evenodd" clip-rule="evenodd" d="M147.892 182.892C179.599 231.769 170.911 293.935 170.911 293.935C170.911 293.935 110.816 276.855 79.1083 227.978C47.4009 179.1 56.0888 116.935 56.0888 116.935C56.0888 116.935 116.184 134.015 147.892 182.892Z" stroke="#3F3D56" stroke-width="2"/>
<path opacity="0.1" d="M171 290.991C170.16 292.006 169.419 292.873 168.81 293.582C167.459 295.126 166.693 295.935 166.693 295.935C166.693 295.935 165.763 294.763 164.199 292.567C155.61 280.566 127.984 237.894 130.117 188.603C130.232 186.019 130.422 183.463 130.685 180.935C132.307 182.668 133.886 184.465 135.42 186.325C167.747 225.406 170.761 277.991 171 290.991Z" fill="black"/>
<path d="M218.883 192.216C216.355 250.482 172.922 295.935 172.922 295.935C172.922 295.935 133.588 246.92 136.117 188.654C138.645 130.388 182.078 84.9348 182.078 84.9348C182.078 84.9348 221.412 133.95 218.883 192.216Z" fill="#222F65"/>
<path d="M173 293.935L182 86.9348" stroke="#3F3D56" stroke-width="2"/>
<path d="M226.5 312.935C349.383 312.935 449 306.667 449 298.935C449 291.203 349.383 284.935 226.5 284.935C103.617 284.935 4 291.203 4 298.935C4 306.667 103.617 312.935 226.5 312.935Z" fill="#3F3D56"/>
<path d="M41 293.935V237.935V293.935Z" fill="#3F3D56"/>
<path d="M41 293.935V237.935" stroke="#3F3D56" stroke-width="2"/>
<path d="M41 245.935C45.4183 245.935 49 242.353 49 237.935C49 233.517 45.4183 229.935 41 229.935C36.5817 229.935 33 233.517 33 237.935C33 242.353 36.5817 245.935 41 245.935Z" fill="#3F3D56"/>
<path d="M41 272.935C41 272.935 39.8837 248.303 17 251.166L41 272.935Z" fill="#3F3D56"/>
<path d="M232 202.935V46.9348V202.935Z" fill="#3F3D56"/>
<path d="M232 202.935V46.9348" stroke="#3F3D56" stroke-width="2"/>
<path d="M232 58.9348C238.075 58.9348 243 54.0099 243 47.9348C243 41.8597 238.075 36.9348 232 36.9348C225.925 36.9348 221 41.8597 221 47.9348C221 54.0099 225.925 58.9348 232 58.9348Z" fill="#3F3D56"/>
<path d="M232 91.9348C232 91.9348 230.465 58.3464 199 62.2506L232 91.9348Z" fill="#3F3D56"/>
<path d="M362.286 116.935L352.909 134.57C352.909 134.57 285.108 147.526 293.763 167.68C302.419 187.834 312.156 217.345 317.205 216.625C322.254 215.906 350.024 200.07 351.106 195.392C352.188 190.713 326.221 168.76 326.221 168.76L369.138 160.482C369.138 160.482 375.269 189.274 367.335 209.068C359.401 228.862 354.712 282.486 360.122 283.206C365.531 283.926 379.236 288.244 385.367 284.286C391.498 280.327 394.383 193.592 394.383 193.592C394.383 193.592 407.366 136.729 399.432 130.251C391.498 123.773 362.286 116.935 362.286 116.935Z" fill="#2F2E41"/>
<path d="M376.942 275.192C376.942 275.192 368.564 270.768 366.8 274.307C366.8 274.307 368.123 284.925 362.831 286.252C357.539 287.579 355.334 296.869 362.831 297.754C370.327 298.639 375.178 295.985 377.824 295.985C380.47 295.985 377.824 286.694 377.824 286.694L376.942 275.192Z" fill="#2F2E41"/>
<path d="M336.965 202.77C336.965 202.77 327.836 200.209 326.855 204.055C326.855 204.055 330.383 214.189 325.485 216.614C320.586 219.039 320.384 228.619 327.905 227.896C335.426 227.172 339.614 223.539 342.203 222.977C344.791 222.416 340.248 213.865 340.248 213.865L336.965 202.77Z" fill="#2F2E41"/>
<path d="M382.395 54.7935C382.395 54.7935 382.752 68.2235 380.258 69.3124C377.765 70.4013 394.15 76.9348 394.15 76.9348L397 71.8532C397 71.8532 393.794 53.7046 394.507 52.2527C395.219 50.8008 382.395 54.7935 382.395 54.7935Z" fill="#9F616A"/>
<path d="M388 57.9348C400.15 57.9348 410 48.0851 410 35.9348C410 23.7845 400.15 13.9348 388 13.9348C375.85 13.9348 366 23.7845 366 35.9348C366 48.0851 375.85 57.9348 388 57.9348Z" fill="#2F2E41"/>
<path d="M390 23.9348C394.971 23.9348 399 19.9054 399 14.9348C399 9.96425 394.971 5.93481 390 5.93481C385.029 5.93481 381 9.96425 381 14.9348C381 19.9054 385.029 23.9348 390 23.9348Z" fill="#2F2E41"/>
<path d="M377.887 9.93481C377.887 5.32724 381.389 1.46386 386 0.983477C385.687 0.951137 385.372 0.934895 385.057 0.934814C380.055 0.934814 376 4.96425 376 9.93481C376 14.9054 380.055 18.9348 385.057 18.9348C385.372 18.9347 385.687 18.9185 386 18.8862C381.389 18.4058 377.887 14.5424 377.887 9.93481Z" fill="#2F2E41"/>
<path d="M387 61.9348C395.284 61.9348 402 55.2191 402 46.9348C402 38.6505 395.284 31.9348 387 31.9348C378.716 31.9348 372 38.6505 372 46.9348C372 55.2191 378.716 61.9348 387 61.9348Z" fill="#9F616A"/>
<path d="M398.251 66.7442C398.251 66.7442 385.297 70.6845 378.82 66.7442C372.343 62.8039 356.87 74.2667 354.351 79.2816C351.832 84.2966 363.706 89.3116 363.706 89.3116C363.706 89.3116 360.316 98.9959 361.008 103.819C361.727 108.834 360.468 119.043 360.468 119.043C360.468 119.043 392.258 139.893 399.33 130.506C400.41 129.073 409.406 95.4012 409.406 95.4012L422 82.8637C422 82.8637 414.084 71.4009 409.406 70.3263C404.728 69.2517 398.251 66.7442 398.251 66.7442Z" fill="#D0CDE1"/>
<path d="M310.937 139.935C310.937 139.935 286.684 152.773 291.677 156.441C296.671 160.109 317 142.136 317 142.136L310.937 139.935Z" fill="#9F616A"/>
<path d="M406.922 130.873C406.922 130.873 395.927 123.157 394.156 127.015C392.386 130.873 406.195 139.562 409.103 136.162C412.01 132.762 406.922 130.873 406.922 130.873Z" fill="#9F616A"/>
<path d="M415.768 77.9348L422.181 81.9231C422.181 81.9231 443.914 112.379 436.433 119.268C428.951 126.157 409.712 139.935 409.712 139.935C409.712 139.935 403.299 130.508 405.436 130.145C407.574 129.783 424.675 115.28 424.675 115.28L409.712 86.9991L415.768 77.9348Z" fill="#D0CDE1"/>
<path d="M358.179 76.9348L353.513 78.7453L341.308 100.834L309 140.303C309 140.303 313.308 147.183 316.897 145.734C320.487 144.286 347.41 113.869 347.41 113.869L365 86.3495L358.179 76.9348Z" fill="#D0CDE1"/>
<path d="M388.5 37.9348C397.06 37.9348 404 33.9054 404 28.9348C404 23.9643 397.06 19.9348 388.5 19.9348C379.94 19.9348 373 23.9643 373 28.9348C373 33.9054 379.94 37.9348 388.5 37.9348Z" fill="#2F2E41"/>
<rect x="286" y="223.935" width="71" height="71" fill="#222F65"/>
<path fill-rule="evenodd" clip-rule="evenodd" d="M334.867 273.344C342.301 273.344 347 267.021 347 256.99C347 243.344 336.546 233.935 321.46 233.935C305.766 233.935 295 244.521 295 259.941C295 275.74 305.549 285.92 322.029 285.934C324.885 285.948 327.733 285.639 330.52 285.013C331.65 284.74 332.356 283.615 332.11 282.479C331.863 281.342 330.755 280.611 329.612 280.83C327.181 281.258 324.715 281.467 322.246 281.453C308.691 281.453 299.983 273.141 299.983 260.117C299.983 247.378 308.785 238.375 321.135 238.375C333.621 238.375 342.071 245.916 342.071 257.193C342.071 264.26 339.688 268.808 335.936 268.808C333.77 268.808 332.565 267.495 332.565 265.316V247.811H327.161V251.575H326.62C325.374 248.826 322.544 247.148 319.213 247.148C312.726 247.148 308.284 252.414 308.284 259.982C308.284 267.861 312.699 273.154 319.307 273.154C323.018 273.154 325.78 271.435 327.121 268.294H327.662C328.164 271.313 331.061 273.344 334.867 273.344ZM320.309 268.145C316.477 268.145 314.121 265.113 314.121 260.104C314.121 255.081 316.436 252.13 320.377 252.13C324.345 252.13 326.891 255.176 326.891 260.104C326.891 265.031 324.345 268.145 320.309 268.145Z" fill="white"/>
</g>
<defs>
<filter id="filter0_d_108_1754" x="0" y="0.934814" width="453" height="320" filterUnits="userSpaceOnUse" color-interpolation-filters="sRGB">
<feFlood flood-opacity="0" result="BackgroundImageFix"/>
<feColorMatrix in="SourceAlpha" type="matrix" values="0 0 0 0 0 0 0 0 0 0 0 0 0 0 0 0 0 0 127 0" result="hardAlpha"/>
<feOffset dy="4"/>
<feGaussianBlur stdDeviation="2"/>
<feComposite in2="hardAlpha" operator="out"/>
<feColorMatrix type="matrix" values="0 0 0 0 0 0 0 0 0 0 0 0 0 0 0 0 0 0 0.25 0"/>
<feBlend mode="normal" in2="BackgroundImageFix" result="effect1_dropShadow_108_1754"/>
<feBlend mode="normal" in="SourceGraphic" in2="effect1_dropShadow_108_1754" result="shape"/>
</filter>
</defs>
</svg>
